{
  "accessors": [
    {
      "bufferView": 2,
      "componentType": 5126,
      "count": 426,
      "max": [
        -27.042497634887695,
        16.73326873779297,
        -69.41291809082031
      ],
      "min": [
        -39.222103118896484,
        0.05940752103924751,
        -76.72149658203125
      ],
      "type": "VEC3"
    },
    {
      "bufferView": 2,
      "byteOffset": 5112,
      "componentType": 5126,
      "count": 426,
      "max": [
        0.9970171451568604,
        0.7859737873077393,
        0.9999184012413025
      ],
      "min": [
        -0.9799533486366272,
        -0.9943591952323914,
        -0.9979574680328369
      ],
      "type": "VEC3"
    },
    {
      "bufferView": 1,
      "componentType": 5126,
      "count": 426,
      "max": [
        0.9956889748573303,
        0.6559339761734009
      ],
      "min": [
        0.008920966647565365,
        0.013381949625909328
      ],
      "type": "VEC2"
    },
    {
      "bufferView": 1,
      "byteOffset": 3408,
      "componentType": 5126,
      "count": 426,
      "max": [
        0.9956889748573303,
        0.6559339761734009
      ],
      "min": [
        0.008920966647565365,
        0.013381949625909328
      ],
      "type": "VEC2"
    },
    {
      "bufferView": 1,
      "byteOffset": 6816,
      "componentType": 5126,
      "count": 426,
      "max": [
        0.9956889748573303,
        0.6559339761734009
      ],
      "min": [
        0.008920966647565365,
        0.013381949625909328
      ],
      "type": "VEC2"
    },
    {
      "bufferView": 1,
      "byteOffset": 10224,
      "componentType": 5126,
      "count": 426,
      "max": [
        0.9956889748573303,
        0.6559339761734009
      ],
      "min": [
        0.008920966647565365,
        0.013381949625909328
      ],
      "type": "VEC2"
    },
    {
      "bufferView": 1,
      "byteOffset": 13632,
      "componentType": 5126,
      "count": 426,
      "max": [
        0.9956889748573303,
        0.6559339761734009
      ],
      "min": [
        0.008920966647565365,
        0.013381949625909328
      ],
      "type": "VEC2"
    },
    {
      "bufferView": 1,
      "byteOffset": 17040,
      "componentType": 5126,
      "count": 426,
      "max": [
        0.9956889748573303,
        0.6559339761734009
      ],
      "min": [
        0.008920966647565365,
        0.013381949625909328
      ],
      "type": "VEC2"
    },
    {
      "bufferView": 1,
      "byteOffset": 20448,
      "componentType": 5126,
      "count": 426,
      "max": [
        0.9956889748573303,
        0.6559339761734009
      ],
      "min": [
        0.008920966647565365,
        0.013381949625909328
      ],
      "type": "VEC2"
    },
    {
      "bufferView": 1,
      "byteOffset": 23856,
      "componentType": 5126,
      "count": 426,
      "max": [
        0.9956889748573303,
        0.6559339761734009
      ],
      "min": [
        0.008920966647565365,
        0.013381949625909328
      ],
      "type": "VEC2"
    },
    {
      "bufferView": 1,
      "byteOffset": 27264,
      "componentType": 5126,
      "count": 426,
      "max": [
        0.9956889748573303,
        0.6559339761734009
      ],
      "min": [
        0.008920966647565365,
        0.013381949625909328
      ],
      "type": "VEC2"
    },
    {
      "bufferView": 1,
      "byteOffset": 30672,
      "componentType": 5126,
      "count": 426,
      "max": [
        0.9956889748573303,
        0.6559339761734009
      ],
      "min": [
        0.008920966647565365,
        0.013381949625909328
      ],
      "type": "VEC2"
    },
    {
      "bufferView": 0,
      "componentType": 5125,
      "count": 1416,
      "type": "SCALAR"
    }
  ],
  "asset": {
    "extras": {
      "author": "eyes360vr (https://sketchfab.com/eyes360vr)",
      "license": "CC-BY-4.0 (http://creativecommons.org/licenses/by/4.0/)",
      "source": "https://sketchfab.com/3d-models/laysclassic-683c14c972a14f5396b7d423a26e8625",
      "title": "Lay's+Classic"
    },
    "generator": "Sketchfab-12.68.0",
    "version": "2.0"
  },
  "bufferViews": [
    {
      "buffer": 0,
      "byteLength": 5664,
      "name": "floatBufferViews",
      "target": 34963
    },
    {
      "buffer": 0,
      "byteLength": 34080,
      "byteOffset": 5664,
      "byteStride": 8,
      "name": "floatBufferViews",
      "target": 34962
    },
    {
      "buffer": 0,
      "byteLength": 10224,
      "byteOffset": 39744,
      "byteStride": 12,
      "name": "floatBufferViews",
      "target": 34962
    }
  ],
  "buffers": [
    {
      "byteLength": 49968,
      "uri": "scene.bin"
    }
  ],
  "images": [
    {
      "uri": "textures/auto_baseColor.jpeg"
    }
  ],
  "materials": [
    {
      "doubleSided": true,
      "name": "auto",
      "pbrMetallicRoughness": {
        "baseColorTexture": {
          "index": 0
        },
        "metallicFactor": 0.0,
        "roughnessFactor": 0.9302134966129227
      }
    }
  ],
  "meshes": [
    {
      "name": "Mesh1__auto__0",
      "primitives": [
        {
          "attributes": {
            "NORMAL": 1,
            "POSITION": 0,
            "TEXCOORD_0": 2,
            "TEXCOORD_1": 3,
            "TEXCOORD_2": 4,
            "TEXCOORD_3": 5,
            "TEXCOORD_4": 6,
            "TEXCOORD_5": 7,
            "TEXCOORD_6": 8,
            "TEXCOORD_7": 9,
            "TEXCOORD_8": 10,
            "TEXCOORD_9": 11
          },
          "indices": 12,
          "material": 0,
          "mode": 4
        }
      ]
    }
  ],
  "nodes": [
    {
      "children": [
        1
      ],
      "matrix": [
        1.0,
        0.0,
        0.0,
        0.0,
        0.0,
        2.220446049250313e-16,
        -1.0,
        0.0,
        0.0,
        1.0,
        2.220446049250313e-16,
        0.0,
        0.0,
        0.0,
        0.0,
        1.0
      ],
      "name": "Sketchfab_model"
    },
    {
      "children": [
        2
      ],
      "matrix": [
        0.009999999776482582,
        0.0,
        0.0,
        0.0,
        0.0,
        0.0,
        0.009999999776482582,
        0.0,
        0.0,
        -0.009999999776482582,
        0.0,
        0.0,
        0.0,
        0.0,
        0.0,
        1.0
      ],
      "name": "Lay's+Classic.fbx"
    },
    {
      "children": [
        3
      ],
      "name": "RootNode"
    },
    {
      "children": [
        4
      ],
      "name": "Model"
    },
    {
      "children": [
        5
      ],
      "name": "skpE4EA1"
    },
    {
      "children": [
        6
      ],
      "name": "Mesh1"
    },
    {
      "mesh": 0,
      "name": "Mesh1__auto__0"
    }
  ],
  "samplers": [
    {
      "magFilter": 9729,
      "minFilter": 9987,
      "wrapS": 10497,
      "wrapT": 10497
    }
  ],
  "scene": 0,
  "scenes": [
    {
      "name": "Sketchfab_Scene",
      "nodes": [
        0
      ]
    }
  ],
  "textures": [
    {
      "sampler": 0,
      "source": 0
    }
  ]
}
